<svg xmlns="http://www.w3.org/2000/svg" xmlns:xlink="http://www.w3.org/1999/xlink" width="80" zoomAndPan="magnify" viewBox="0 0 375 374.999991" height="80" preserveAspectRatio="xMidYMid meet" version="1.0"><defs><g/><clipPath id="f8dd85079d"><path d="M 233 128.628906 L 261 128.628906 L 261 140 L 233 140 Z M 233 128.628906 " clip-rule="nonzero"/></clipPath><clipPath id="6b71947fd3"><path d="M 236.4375 166.328125 L 273.890625 166.328125 L 273.890625 184.128906 L 236.4375 184.128906 Z M 236.4375 166.328125 " clip-rule="nonzero"/></clipPath><clipPath id="cab66a9402"><path d="M 221.359375 154 L 246 154 L 246 183 L 221.359375 183 Z M 221.359375 154 " clip-rule="nonzero"/></clipPath><clipPath id="386e623c2a"><path d="M 275.058594 160.085938 L 291.589844 160.085938 L 291.589844 177.640625 L 275.058594 177.640625 Z M 275.058594 160.085938 " clip-rule="nonzero"/></clipPath></defs><g fill="#000000" fill-opacity="1"><g transform="translate(297.2302, 174.385155)"><g><path d="M 2.308594 3.3125 C 4.113281 3.3125 5.621094 0.199219 6.222656 -1.152344 C 7.726562 -4.515625 8.027344 -12.34375 8.628906 -16.355469 C 9.132812 -19.71875 9.835938 -25.4375 11.539062 -28.449219 C 12.09375 -29.453125 12.894531 -30.355469 13.699219 -31.207031 C 16.609375 -34.269531 21.976562 -35.121094 25.941406 -35.824219 C 26.492188 -35.925781 30.304688 -36.375 30.304688 -37.128906 C 30.304688 -37.332031 30.355469 -37.53125 30.355469 -37.730469 C 30.355469 -38.382812 30.15625 -38.683594 29.652344 -39.035156 C 29.402344 -39.238281 28.949219 -39.386719 28.699219 -39.539062 C 26.441406 -40.691406 23.984375 -41.445312 21.375 -41.445312 C 20.070312 -41.445312 18.765625 -41.242188 17.511719 -40.84375 C 7.925781 -37.679688 5.820312 -28.097656 4.714844 -19.167969 C 4.464844 -17.359375 4.363281 -15.503906 4.113281 -13.648438 C 3.761719 -10.789062 -0.402344 -7.425781 -0.402344 -2.859375 C -0.402344 -1.304688 0 3.3125 2.308594 3.3125 Z M 2.308594 3.3125 "/></g></g></g><g fill="#000000" fill-opacity="1"><g transform="translate(304.854812, 174.385155)"><g><path d="M 8.980469 1.503906 C 13.046875 1.503906 16.707031 -0.753906 18.867188 -4.164062 C 19.417969 -5.015625 19.96875 -5.972656 19.96875 -7.023438 C 19.96875 -8.179688 19.066406 -8.730469 18.011719 -8.730469 C 15.050781 -8.730469 13.347656 -0.804688 8.679688 -0.804688 C 6.320312 -0.804688 6.019531 -4.0625 6.019531 -5.769531 C 6.019531 -8.730469 6.773438 -12.09375 7.675781 -14.902344 C 8.78125 -13.546875 10.285156 -12.996094 11.992188 -12.996094 C 15.605469 -12.996094 20.773438 -15.703125 23.179688 -18.363281 C 24.835938 -20.21875 25.839844 -22.578125 25.839844 -25.085938 C 25.839844 -29.253906 23.179688 -32.261719 18.914062 -32.261719 C 8.027344 -32.261719 0.453125 -16.859375 0.453125 -7.375 C 0.453125 -1.957031 3.460938 1.503906 8.980469 1.503906 Z M 8.277344 -16.609375 C 9.535156 -19.96875 11.539062 -24.085938 14.25 -26.542969 C 15.503906 -27.695312 17.960938 -29.703125 19.71875 -29.703125 C 20.921875 -29.703125 21.777344 -28.648438 21.777344 -27.496094 C 21.777344 -25.136719 15.050781 -20.371094 13.246094 -19.21875 C 11.640625 -18.265625 9.984375 -17.359375 8.277344 -16.609375 Z M 8.277344 -16.609375 "/></g></g></g><g fill="#000000" fill-opacity="1"><g transform="translate(327.529834, 174.385155)"><g/></g></g><g fill="#000000" fill-opacity="1"><g transform="translate(338.315029, 174.385155)"><g><path d="M 1.253906 22.980469 C 2.105469 22.980469 3.460938 17.511719 3.664062 16.808594 C 5.320312 10.535156 6.421875 4.113281 8.027344 -2.15625 C 9.433594 -7.527344 9.882812 -13.144531 9.882812 -18.664062 C 9.882812 -20.019531 9.835938 -21.425781 9.785156 -22.78125 C 9.683594 -24.785156 8.882812 -26.691406 6.574219 -26.691406 C 4.214844 -26.691406 4.113281 -24.785156 4.113281 -22.929688 C 4.113281 -20.171875 4.566406 -17.460938 4.566406 -14.703125 C 4.566406 -12.84375 4.414062 -10.988281 4.265625 -9.132812 C 3.8125 -3.011719 2.859375 3.109375 1.855469 9.183594 C 1.304688 12.644531 0.402344 17.160156 0.402344 20.671875 C 0.402344 21.074219 0.402344 22.980469 1.253906 22.980469 Z M 1.253906 22.980469 "/></g></g></g><g fill="#000000" fill-opacity="1"><g transform="translate(347.193832, 174.385155)"><g><path d="M 14.050781 2.359375 C 17.359375 2.359375 22.929688 1.554688 22.929688 -2.808594 C 22.929688 -4.566406 20.871094 -4.515625 19.617188 -4.515625 C 15.703125 -4.515625 10.988281 -1.253906 7.425781 -1.253906 C 5.921875 -1.253906 5.320312 -2.105469 5.320312 -3.5625 C 5.320312 -9.683594 11.339844 -12.695312 16.257812 -14.652344 C 17.8125 -15.304688 19.667969 -15.804688 21.125 -16.65625 C 21.925781 -17.109375 22.527344 -17.5625 22.527344 -18.566406 C 22.527344 -21.476562 15.957031 -25.386719 13.648438 -26.644531 C 13.296875 -26.84375 11.640625 -27.746094 11.289062 -27.746094 C 10.4375 -27.746094 9.582031 -26.996094 9.582031 -26.140625 C 9.582031 -24.335938 12.242188 -21.476562 13.445312 -20.21875 C 7.726562 -18.914062 1.503906 -13.195312 1.503906 -7.023438 C 1.503906 -4.464844 2.609375 -2.15625 4.464844 -0.402344 C 6.625 1.707031 11.1875 2.359375 14.050781 2.359375 Z M 14.050781 2.359375 "/></g></g></g><g fill="#ff3131" fill-opacity="1"><g transform="translate(-6.44528, 259.003266)"><g><path d="M 73.703125 0 L 7.796875 0 L 7.796875 -33.015625 L 17.21875 -43.421875 L 17.21875 -44.71875 L 13.90625 -44.71875 C 10.875 -44.71875 8.515625 -45.671875 6.828125 -47.578125 C 5.179688 -49.484375 4.359375 -51.78125 4.359375 -54.46875 C 4.359375 -57.238281 5.160156 -59.617188 6.765625 -61.609375 C 8.410156 -63.648438 10.789062 -64.671875 13.90625 -64.671875 L 53.5625 -64.671875 C 57.113281 -64.671875 60.164062 -64.28125 62.71875 -63.5 C 65.28125 -62.71875 67.367188 -61.492188 68.984375 -59.828125 C 70.609375 -58.160156 71.800781 -56.035156 72.5625 -53.453125 C 73.320312 -50.878906 73.703125 -47.796875 73.703125 -44.203125 Z M 50.890625 -19.828125 L 50.890625 -39.78125 C 50.890625 -43.070312 49.4375 -44.71875 46.53125 -44.71875 L 30.546875 -44.71875 L 30.546875 -19.828125 Z M 50.890625 -19.828125 "/></g></g></g><g fill="#ff3131" fill-opacity="1"><g transform="translate(68.696538, 259.003266)"><g><path d="M 28.140625 -32.375 C 28.140625 -29.332031 27.015625 -26.945312 24.765625 -25.21875 C 22.515625 -23.488281 19.867188 -22.625 16.828125 -22.625 C 13.710938 -22.625 11.09375 -23.421875 8.96875 -25.015625 C 6.582031 -26.753906 5.390625 -29.207031 5.390625 -32.375 L 5.390625 -64.671875 L 28.140625 -64.671875 Z M 28.140625 -32.375 "/></g></g></g><g fill="#ff3131" fill-opacity="1"><g transform="translate(96.982834, 259.003266)"><g><path d="M 44.71875 0 L 12.09375 0 C 6.582031 0 3.828125 -3.507812 3.828125 -10.53125 C 3.828125 -17.976562 6.582031 -21.703125 12.09375 -21.703125 L 21.96875 -21.703125 L 21.96875 -39.25 C 21.96875 -42.894531 20.101562 -44.71875 16.375 -44.71875 L 6.5 -44.71875 L 6.5 -64.671875 L 26.90625 -64.671875 C 32.363281 -64.671875 36.695312 -63.046875 39.90625 -59.796875 C 43.113281 -56.585938 44.71875 -52.234375 44.71875 -46.734375 Z M 44.71875 0 "/></g></g></g><g fill="#ff3131" fill-opacity="1"><g transform="translate(143.140508, 259.003266)"><g><path d="M 91.90625 -30.609375 C 91.90625 -10.203125 81.613281 0 61.03125 0 L 7.015625 0 L 7.015625 -55.890625 C 7.015625 -59.054688 8.207031 -61.503906 10.59375 -63.234375 C 12.71875 -64.929688 15.296875 -65.78125 18.328125 -65.78125 C 21.398438 -65.78125 24 -64.976562 26.125 -63.375 C 28.550781 -61.46875 29.765625 -58.972656 29.765625 -55.890625 L 29.765625 -18.65625 L 39.328125 -18.65625 L 39.328125 -55.890625 C 39.328125 -58.972656 40.429688 -61.46875 42.640625 -63.375 C 44.546875 -64.976562 46.945312 -65.78125 49.84375 -65.78125 C 52.625 -65.78125 55.007812 -64.910156 57 -63.171875 C 59.082031 -61.398438 60.125 -58.972656 60.125 -55.890625 L 60.125 -33.796875 L 47.578125 -19.6875 L 47.578125 -18.65625 L 59.28125 -18.65625 C 65.863281 -18.65625 69.15625 -22.015625 69.15625 -28.734375 L 69.15625 -55.890625 C 69.15625 -59.015625 70.347656 -61.507812 72.734375 -63.375 C 74.847656 -64.976562 77.46875 -65.78125 80.59375 -65.78125 C 83.625 -65.78125 86.265625 -64.910156 88.515625 -63.171875 C 90.773438 -61.441406 91.90625 -59.015625 91.90625 -55.890625 Z M 91.90625 -30.609375 "/></g></g></g><g fill="#ff3131" fill-opacity="1"><g transform="translate(236.413666, 259.003266)"><g><path d="M 30.28125 -8.78125 C 30.28125 -5.65625 29.09375 -3.226562 26.71875 -1.5 C 24.675781 0.195312 22.097656 1.046875 18.984375 1.046875 C 15.859375 1.046875 13.234375 0.195312 11.109375 -1.5 C 8.734375 -3.226562 7.546875 -5.65625 7.546875 -8.78125 L 7.546875 -64.671875 L 30.28125 -64.671875 Z M 30.28125 -8.78125 "/></g></g></g><g fill="#ff3131" fill-opacity="1"><g transform="translate(268.59918, 259.003266)"><g><path d="M 91.90625 -30.609375 C 91.90625 -10.203125 81.613281 0 61.03125 0 L 7.015625 0 L 7.015625 -55.890625 C 7.015625 -59.054688 8.207031 -61.503906 10.59375 -63.234375 C 12.71875 -64.929688 15.296875 -65.78125 18.328125 -65.78125 C 21.398438 -65.78125 24 -64.976562 26.125 -63.375 C 28.550781 -61.46875 29.765625 -58.972656 29.765625 -55.890625 L 29.765625 -18.65625 L 39.328125 -18.65625 L 39.328125 -55.890625 C 39.328125 -58.972656 40.429688 -61.46875 42.640625 -63.375 C 44.546875 -64.976562 46.945312 -65.78125 49.84375 -65.78125 C 52.625 -65.78125 55.007812 -64.910156 57 -63.171875 C 59.082031 -61.398438 60.125 -58.972656 60.125 -55.890625 L 60.125 -33.796875 L 47.578125 -19.6875 L 47.578125 -18.65625 L 59.28125 -18.65625 C 65.863281 -18.65625 69.15625 -22.015625 69.15625 -28.734375 L 69.15625 -55.890625 C 69.15625 -59.015625 70.347656 -61.507812 72.734375 -63.375 C 74.847656 -64.976562 77.46875 -65.78125 80.59375 -65.78125 C 83.625 -65.78125 86.265625 -64.910156 88.515625 -63.171875 C 90.773438 -61.441406 91.90625 -59.015625 91.90625 -55.890625 Z M 91.90625 -30.609375 "/></g></g></g><path fill="#ff3131" d="M 250.414062 146.191406 C 251.445312 146.652344 252.589844 146.914062 253.710938 147.042969 C 254.171875 147.097656 254.648438 147.132812 255.109375 147.074219 C 255.324219 147.042969 255.679688 146.980469 255.742188 146.730469 C 255.753906 146.679688 255.75 146.628906 255.738281 146.578125 C 255.496094 145.570312 255.097656 144.605469 254.554688 143.722656 C 254.316406 143.335938 254.0625 142.894531 253.609375 142.734375 C 253.304688 142.628906 252.964844 142.628906 252.648438 142.671875 C 252.039062 142.757812 251.4375 142.96875 250.886719 143.234375 C 250.351562 143.492188 249.785156 143.839844 249.457031 144.347656 C 249.230469 144.695312 249.152344 145.183594 249.421875 145.527344 C 249.667969 145.835938 250.0625 146.03125 250.414062 146.191406 " fill-opacity="1" fill-rule="nonzero"/><path fill="#ff3131" d="M 256.039062 134.800781 C 255.535156 134.902344 255.039062 135.039062 254.546875 135.183594 C 253.703125 135.429688 252.851562 135.648438 252.019531 135.925781 C 251.605469 136.066406 251.199219 136.214844 250.800781 136.394531 C 250.609375 136.480469 250.417969 136.574219 250.234375 136.675781 C 250.109375 136.742188 249.976562 136.808594 249.867188 136.894531 C 249.75 136.988281 249.65625 137.113281 249.5625 137.230469 C 249.417969 137.414062 249.277344 137.605469 249.144531 137.800781 C 248.828125 138.253906 248.53125 138.722656 248.253906 139.203125 C 248.136719 139.402344 248.023438 139.605469 247.925781 139.816406 C 247.863281 139.941406 247.792969 140.082031 247.769531 140.21875 C 247.753906 140.292969 247.757812 140.367188 247.84375 140.375 C 247.949219 140.382812 248.070312 140.355469 248.171875 140.34375 C 248.28125 140.335938 248.390625 140.324219 248.5 140.3125 C 248.71875 140.292969 248.9375 140.265625 249.160156 140.242188 C 250.894531 140.054688 252.699219 139.839844 254.410156 140.320312 C 255.292969 140.570312 256.132812 141.007812 256.820312 141.621094 C 257.417969 142.152344 257.871094 142.824219 258.234375 143.53125 C 258.609375 144.269531 258.894531 145.042969 259.183594 145.816406 C 259.328125 146.203125 259.472656 146.585938 259.625 146.96875 C 259.769531 147.332031 259.914062 147.714844 260.113281 148.050781 C 260.28125 148.339844 260.59375 148.582031 260.902344 148.316406 C 261.058594 148.183594 261.175781 147.996094 261.300781 147.832031 C 261.441406 147.644531 261.574219 147.453125 261.703125 147.261719 C 262.222656 146.488281 262.660156 145.660156 262.992188 144.789062 C 263.617188 143.140625 263.859375 141.285156 263.40625 139.558594 C 263.015625 138.070312 262.128906 136.695312 260.898438 135.761719 C 260.296875 135.304688 259.605469 134.960938 258.867188 134.78125 C 257.9375 134.550781 256.972656 134.613281 256.039062 134.800781 " fill-opacity="1" fill-rule="nonzero"/><path fill="#ff3131" d="M 246.519531 141.945312 C 246.542969 141.507812 246.484375 141.007812 246.214844 140.644531 C 246.035156 140.398438 245.761719 140.253906 245.460938 140.214844 C 244.75 140.117188 244 140.484375 243.417969 140.855469 C 243.109375 141.054688 242.8125 141.28125 242.550781 141.539062 C 242.257812 141.832031 242.042969 142.171875 241.871094 142.546875 C 241.324219 143.730469 241.257812 145.082031 241.402344 146.359375 C 241.683594 148.878906 242.886719 151.371094 245.113281 152.714844 C 246.15625 153.339844 247.375 153.695312 248.597656 153.617188 C 249.996094 153.53125 251.289062 152.929688 252.53125 152.328125 C 252.875 152.160156 253.21875 151.992188 253.558594 151.828125 C 253.582031 151.816406 253.582031 151.785156 253.566406 151.769531 C 252.523438 150.734375 251.183594 150.101562 249.949219 149.335938 C 249.585938 149.109375 249.226562 148.871094 248.886719 148.605469 C 247.941406 147.863281 247.152344 146.894531 246.707031 145.765625 C 246.484375 145.199219 246.355469 144.601562 246.328125 143.992188 C 246.3125 143.679688 246.328125 143.367188 246.367188 143.058594 C 246.417969 142.6875 246.496094 142.320312 246.519531 141.945312 " fill-opacity="1" fill-rule="nonzero"/><path fill="#ff3131" d="M 258.472656 153.414062 C 256.800781 154.496094 255.039062 155.425781 253.289062 156.371094 C 251.539062 157.316406 249.796875 158.277344 248.171875 159.421875 C 246.574219 160.554688 245.097656 161.871094 243.925781 163.449219 C 243.78125 163.644531 243.640625 163.847656 243.503906 164.050781 C 243.476562 164.089844 243.539062 164.125 243.566406 164.085938 C 244.21875 163.125 245.371094 162.730469 246.472656 162.570312 C 247.753906 162.382812 249.066406 162.453125 250.355469 162.53125 C 251.496094 162.601562 252.636719 162.703125 253.777344 162.558594 C 255.449219 162.347656 257.085938 161.878906 258.617188 161.171875 C 260.15625 160.464844 261.589844 159.519531 262.832031 158.363281 C 262.984375 158.21875 263.136719 158.074219 263.285156 157.921875 C 264.691406 156.496094 265.808594 154.796875 266.589844 152.953125 C 267.367188 151.117188 267.8125 149.140625 267.890625 147.148438 C 267.933594 146.03125 267.855469 144.914062 267.660156 143.8125 C 267.65625 143.78125 267.609375 143.78125 267.59375 143.804688 C 266.46875 145.757812 265.109375 147.570312 263.554688 149.199219 C 262.03125 150.796875 260.324219 152.210938 258.472656 153.414062 " fill-opacity="1" fill-rule="nonzero"/><path fill="#ff3131" d="M 236.863281 141.550781 C 236.890625 141.515625 236.828125 141.476562 236.800781 141.515625 C 236.3125 142.183594 236.097656 142.996094 235.964844 143.800781 C 235.820312 144.667969 235.730469 145.546875 235.667969 146.421875 C 235.53125 148.222656 235.535156 150.035156 235.667969 151.835938 C 235.804688 153.632812 236.074219 155.421875 236.472656 157.179688 C 236.871094 158.929688 237.386719 160.667969 238.0625 162.332031 C 238.347656 163.042969 238.742188 163.777344 239.480469 164.101562 C 239.792969 164.242188 240.148438 164.296875 240.484375 164.203125 C 240.835938 164.109375 241.113281 163.863281 241.34375 163.589844 C 241.457031 163.453125 241.5625 163.308594 241.664062 163.164062 C 242.125 162.511719 242.675781 161.921875 243.1875 161.308594 C 243.832031 160.542969 244.464844 159.757812 244.996094 158.90625 C 245.4375 158.195312 245.871094 157.386719 245.914062 156.53125 C 245.929688 156.210938 245.886719 155.828125 245.707031 155.550781 C 245.511719 155.25 245.148438 155.070312 244.835938 154.921875 C 244.398438 154.710938 243.941406 154.539062 243.488281 154.359375 C 243.070312 154.191406 242.636719 154.027344 242.261719 153.773438 C 242.066406 153.640625 241.898438 153.464844 241.738281 153.289062 C 241.539062 153.066406 241.359375 152.824219 241.195312 152.578125 C 240.855469 152.070312 240.574219 151.527344 240.320312 150.972656 C 239.859375 149.964844 239.507812 148.914062 239.066406 147.898438 C 238.8125 147.3125 238.539062 146.738281 238.28125 146.15625 C 237.917969 145.335938 237.5625 144.511719 237.257812 143.664062 C 237.125 143.304688 237.003906 142.941406 236.910156 142.570312 C 236.84375 142.3125 236.777344 142.039062 236.796875 141.773438 C 236.804688 141.695312 236.816406 141.617188 236.863281 141.550781 " fill-opacity="1" fill-rule="nonzero"/><g clip-path="url(#f8dd85079d)"><path fill="#ff3131" d="M 235.011719 136.863281 C 235.410156 137.1875 235.828125 137.492188 236.242188 137.796875 C 236.609375 138.0625 236.984375 138.320312 237.386719 138.539062 C 238.035156 138.890625 238.75 139.097656 239.492188 138.988281 C 240.480469 138.847656 241.308594 138.261719 242.105469 137.707031 C 243.007812 137.082031 243.9375 136.5 244.898438 135.96875 C 246.820312 134.902344 248.84375 134.027344 250.9375 133.355469 C 253.03125 132.6875 255.191406 132.222656 257.375 131.980469 C 257.878906 131.925781 258.390625 131.90625 258.894531 131.835938 C 259.277344 131.785156 259.707031 131.679688 259.964844 131.363281 C 260.175781 131.097656 260.21875 130.742188 260.066406 130.4375 C 259.886719 130.085938 259.53125 129.839844 259.191406 129.667969 C 258.785156 129.464844 258.363281 129.371094 257.921875 129.292969 C 255.796875 128.917969 253.640625 128.71875 251.484375 128.6875 C 249.308594 128.65625 247.128906 128.796875 244.976562 129.125 C 242.816406 129.453125 240.683594 129.96875 238.621094 130.699219 C 237.613281 131.058594 236.609375 131.457031 235.652344 131.9375 C 234.929688 132.300781 234.15625 132.738281 233.671875 133.410156 C 233.328125 133.886719 233.242188 134.457031 233.453125 135.007812 C 233.746094 135.765625 234.398438 136.359375 235.011719 136.863281 " fill-opacity="1" fill-rule="nonzero"/></g><path fill="#ff3131" d="M 269.824219 142 C 270.332031 143.648438 270.8125 145.320312 270.953125 147.046875 C 271.078125 148.566406 270.960938 150.101562 270.640625 151.589844 C 269.992188 154.589844 268.511719 157.398438 266.453125 159.667969 C 264.441406 161.878906 261.84375 163.542969 259.117188 164.734375 C 257.703125 165.351562 256.222656 165.839844 254.703125 166.121094 C 253.984375 166.253906 253.253906 166.339844 252.523438 166.355469 C 251.699219 166.375 250.882812 166.28125 250.066406 166.171875 C 249.175781 166.054688 248.285156 165.929688 247.382812 165.941406 C 247.34375 165.941406 247.335938 166 247.375 166.011719 C 249.480469 166.742188 251.59375 167.472656 253.777344 167.941406 C 255.902344 168.394531 258.085938 168.5625 260.25 168.363281 C 261.480469 168.253906 262.703125 168.019531 263.890625 167.683594 C 267.179688 166.734375 270.195312 165.058594 273.03125 163.171875 C 274.441406 162.234375 275.828125 161.25 277.1875 160.238281 C 278.425781 159.324219 279.652344 158.316406 280.460938 156.984375 C 281.34375 155.535156 281.546875 153.828125 281.75 152.179688 C 281.957031 150.472656 282.148438 148.722656 281.839844 147.011719 C 281.691406 146.195312 281.417969 145.410156 281.015625 144.683594 C 280.605469 143.945312 280.09375 143.273438 279.558594 142.625 C 278.363281 141.171875 277.128906 139.75 275.90625 138.320312 C 275.292969 137.601562 274.675781 136.878906 274.058594 136.160156 C 273.453125 135.457031 272.867188 134.730469 272.234375 134.050781 C 271.777344 133.558594 271.21875 133.058594 270.519531 132.992188 C 269.992188 132.945312 269.496094 133.164062 269.15625 133.5625 C 268.394531 134.457031 268.351562 135.796875 268.507812 136.902344 C 268.757812 138.644531 269.308594 140.320312 269.824219 142 " fill-opacity="1" fill-rule="nonzero"/><path fill="#ff3131" d="M 226.445312 157.183594 C 227.71875 159.648438 229.339844 161.933594 231.203125 163.988281 C 231.675781 164.515625 232.164062 165.035156 232.675781 165.523438 C 233.125 165.949219 233.609375 166.292969 234.234375 166.398438 C 234.808594 166.492188 235.40625 166.371094 235.578125 165.75 C 235.753906 165.121094 235.558594 164.394531 235.378906 163.792969 C 235.179688 163.132812 234.917969 162.492188 234.652344 161.859375 C 234.171875 160.722656 233.773438 159.542969 233.421875 158.359375 C 232.972656 156.832031 232.636719 155.265625 232.523438 153.671875 C 232.285156 150.382812 232.925781 147.109375 232.851562 143.820312 C 232.835938 143.234375 232.78125 142.648438 232.664062 142.074219 C 232.527344 141.433594 232.3125 140.8125 232.0625 140.210938 C 231.765625 139.496094 231.425781 138.816406 231.234375 138.066406 C 231.042969 137.332031 230.953125 136.570312 230.964844 135.808594 C 230.976562 135.023438 231.128906 134.28125 231.3125 133.523438 C 231.4375 133.015625 231.46875 132.238281 230.851562 132.027344 C 230.546875 131.925781 230.242188 132.078125 229.988281 132.242188 C 229.757812 132.394531 229.53125 132.558594 229.3125 132.730469 C 228.386719 133.457031 227.589844 134.335938 226.910156 135.292969 C 225.503906 137.277344 224.585938 139.601562 224.070312 141.96875 C 223.539062 144.410156 223.480469 146.910156 223.855469 149.378906 C 224.269531 152.101562 225.183594 154.738281 226.445312 157.183594 " fill-opacity="1" fill-rule="nonzero"/><g clip-path="url(#6b71947fd3)"><path fill="#ff3131" d="M 273.175781 166.359375 C 272.871094 166.34375 272.558594 166.488281 272.289062 166.613281 C 271.949219 166.765625 271.632812 166.960938 271.328125 167.171875 C 270.707031 167.601562 270.136719 168.089844 269.515625 168.515625 C 267.035156 170.214844 264.105469 171.148438 261.144531 171.546875 C 260.402344 171.648438 259.652344 171.714844 258.902344 171.753906 C 258.15625 171.789062 257.410156 171.8125 256.664062 171.746094 C 255.289062 171.625 253.960938 171.222656 252.683594 170.710938 C 250.058594 169.648438 247.554688 168.183594 244.683594 167.90625 C 243.050781 167.75 241.40625 167.910156 239.792969 168.164062 C 239.019531 168.285156 238.222656 168.390625 237.460938 168.582031 C 237.0625 168.683594 236.453125 168.929688 236.46875 169.433594 C 236.476562 169.722656 236.699219 169.925781 236.90625 170.101562 C 237.214844 170.363281 237.527344 170.628906 237.835938 170.894531 C 238.4375 171.414062 239.03125 171.941406 239.625 172.472656 C 240.808594 173.53125 241.980469 174.601562 243.167969 175.652344 C 245.535156 177.75 247.992188 179.730469 250.648438 181.453125 C 251.933594 182.285156 253.257812 183.085938 254.703125 183.605469 C 256.117188 184.113281 257.605469 184.277344 259.09375 184.058594 C 262.199219 183.601562 264.84375 181.742188 267.066406 179.621094 C 267.632812 179.085938 268.175781 178.527344 268.710938 177.964844 C 269.242188 177.40625 269.773438 176.855469 270.261719 176.261719 C 271.210938 175.109375 272.019531 173.839844 272.632812 172.476562 C 272.933594 171.8125 273.179688 171.125 273.371094 170.421875 C 273.582031 169.613281 273.714844 168.785156 273.734375 167.949219 C 273.742188 167.578125 273.761719 167.164062 273.675781 166.796875 C 273.617188 166.542969 273.445312 166.375 273.175781 166.359375 " fill-opacity="1" fill-rule="nonzero"/></g><g clip-path="url(#cab66a9402)"><path fill="#ff3131" d="M 245.28125 181.324219 C 245.113281 181.382812 244.925781 181.292969 244.78125 181.210938 C 244.527344 181.074219 244.300781 180.882812 244.089844 180.6875 C 243.492188 180.148438 242.957031 179.53125 242.441406 178.914062 C 241.875 178.238281 241.328125 177.542969 240.789062 176.84375 C 240.386719 176.328125 240 175.804688 239.582031 175.300781 C 239.328125 174.992188 239.039062 174.71875 238.753906 174.441406 C 238.203125 173.902344 237.636719 173.378906 237.0625 172.867188 C 235.929688 171.84375 234.769531 170.847656 233.671875 169.789062 C 232.585938 168.742188 231.558594 167.628906 230.554688 166.507812 C 229.539062 165.375 228.558594 164.21875 227.601562 163.039062 C 225.707031 160.6875 223.933594 158.242188 222.289062 155.710938 C 222.089844 155.398438 221.886719 155.082031 221.691406 154.769531 C 221.664062 154.730469 221.601562 154.765625 221.628906 154.804688 C 221.722656 154.96875 221.710938 155.203125 221.714844 155.382812 C 221.714844 155.699219 221.691406 156.015625 221.660156 156.328125 C 221.597656 157.019531 221.503906 157.707031 221.441406 158.402344 C 221.367188 159.210938 221.488281 160.023438 221.582031 160.828125 C 221.71875 162.023438 221.898438 163.214844 222.121094 164.394531 C 222.511719 166.46875 223.074219 168.519531 223.945312 170.449219 C 224.816406 172.378906 226.015625 174.125 227.523438 175.617188 C 229.019531 177.09375 230.746094 178.316406 232.53125 179.417969 C 232.757812 179.558594 232.984375 179.695312 233.210938 179.832031 C 234.617188 180.648438 236.148438 181.253906 237.726562 181.632812 C 239.332031 182.019531 241.003906 182.175781 242.648438 182.003906 C 243.554688 181.910156 244.449219 181.710938 245.300781 181.394531 C 245.34375 181.375 245.328125 181.308594 245.28125 181.324219 " fill-opacity="1" fill-rule="nonzero"/></g><g clip-path="url(#386e623c2a)"><path fill="#ff3131" d="M 291.574219 164.386719 C 291.554688 164.144531 291.511719 163.90625 291.449219 163.675781 C 291.183594 162.699219 290.554688 161.84375 289.757812 161.226562 C 288.925781 160.574219 287.921875 160.199219 286.867188 160.128906 C 285.695312 160.050781 284.519531 160.328125 283.460938 160.820312 C 281.558594 161.710938 280.089844 163.296875 278.984375 165.050781 C 277.867188 166.820312 277.074219 168.792969 276.46875 170.792969 C 275.875 172.742188 275.460938 174.746094 275.175781 176.765625 C 275.144531 176.980469 275.117188 177.199219 275.089844 177.414062 C 275.085938 177.457031 275.15625 177.464844 275.160156 177.425781 C 275.179688 177.300781 275.257812 177.191406 275.328125 177.09375 C 275.445312 176.933594 275.578125 176.792969 275.714844 176.652344 C 276.070312 176.289062 276.453125 175.953125 276.835938 175.617188 C 277.222656 175.28125 277.613281 174.945312 277.988281 174.59375 C 278.132812 174.460938 278.273438 174.324219 278.40625 174.179688 C 278.550781 174.019531 278.664062 173.839844 278.785156 173.660156 C 279.167969 173.078125 279.527344 172.484375 279.957031 171.933594 C 280.417969 171.339844 280.960938 170.832031 281.542969 170.355469 C 282.746094 169.378906 284.046875 168.523438 285.421875 167.8125 C 286.804688 167.09375 288.261719 166.523438 289.765625 166.117188 C 289.949219 166.066406 290.136719 166.019531 290.328125 165.972656 C 290.789062 165.859375 291.335938 165.714844 291.511719 165.214844 C 291.605469 164.953125 291.597656 164.65625 291.574219 164.386719 " fill-opacity="1" fill-rule="nonzero"/></g></svg>